<svg xmlns="http://www.w3.org/2000/svg" viewBox="0 0 200 140" fill="none">
  <rect width="200" height="140" fill="#2d2d2d"/>
  <!-- Fermenter -->
  <rect x="55" y="25" width="90" height="95" rx="10" fill="#2d1a2d" stroke="#9b6bc7" stroke-width="2"/>
  <rect x="59" y="55" width="82" height="61" rx="6" fill="#3a2040" opacity="0.7"/>
  <!-- Cooling coil wrap -->
  <path d="M45 45 Q35 45 35 55 Q35 65 45 65" stroke="#4a90d9" stroke-width="3" fill="none"/>
  <path d="M45 65 Q35 65 35 75 Q35 85 45 85" stroke="#4a90d9" stroke-width="3" fill="none"/>
  <path d="M45 85 Q35 85 35 95 Q35 105 45 105" stroke="#4a90d9" stroke-width="3" fill="none"/>
  <path d="M155 45 Q165 45 165 55 Q165 65 155 65" stroke="#4a90d9" stroke-width="3" fill="none"/>
  <path d="M155 65 Q165 65 165 75 Q165 85 155 85" stroke="#4a90d9" stroke-width="3" fill="none"/>
  <path d="M155 85 Q165 85 165 95 Q165 105 155 105" stroke="#4a90d9" stroke-width="3" fill="none"/>
  <!-- Airlock -->
  <rect x="88" y="13" width="24" height="14" rx="5" fill="#666" stroke="#888" stroke-width="1.5"/>
  <line x1="100" y1="13" x2="100" y2="25" stroke="#888" stroke-width="2"/>
</svg>
