<svg xmlns="http://www.w3.org/2000/svg" viewBox="0 0 200 140" fill="none">
  <rect width="200" height="140" fill="#2d2d2d"/>
  <!-- Bucket (bøtte) left -->
  <path d="M30 55 L38 110 L72 110 L80 55 Z" fill="#1a2a3a" stroke="#4a90d9" stroke-width="1.5"/>
  <path d="M30 55 L80 55" stroke="#4a90d9" stroke-width="1.5"/>
  <!-- Bucket handle -->
  <path d="M38 55 Q55 38 72 55" fill="none" stroke="#888" stroke-width="1.5"/>
  <!-- Arrow -->
  <line x1="88" y1="82" x2="108" y2="82" stroke="#5aaa5a" stroke-width="2"/>
  <line x1="103" y1="76" x2="108" y2="82" stroke="#5aaa5a" stroke-width="2"/>
  <line x1="103" y1="88" x2="108" y2="82" stroke="#5aaa5a" stroke-width="2"/>
  <!-- Corny keg (fat) right -->
  <rect x="118" y="32" width="50" height="80" rx="8" fill="#2a2a2a" stroke="#888" stroke-width="2"/>
  <rect x="118" y="48" width="50" height="5" rx="2" fill="#333" stroke="#666" stroke-width="1"/>
  <rect x="118" y="82" width="50" height="5" rx="2" fill="#333" stroke="#666" stroke-width="1"/>
  <ellipse cx="143" cy="32" rx="25" ry="7" fill="#3a3a3a" stroke="#888" stroke-width="1.5"/>
  <rect x="133" y="20" width="8" height="13" rx="3" fill="#555" stroke="#888" stroke-width="1"/>
  <rect x="147" y="20" width="8" height="13" rx="3" fill="#555" stroke="#888" stroke-width="1"/>
  <!-- CO2 pressure gauge hint -->
  <circle cx="150" cy="100" r="10" fill="#2a2a2a" stroke="#888" stroke-width="1"/>
  <line x1="150" y1="100" x2="155" y2="94" stroke="#5aaa5a" stroke-width="1.5"/>
</svg>
